<svg width="25" height="24" viewBox="0 0 25 24" fill="none" xmlns="http://www.w3.org/2000/svg">
<path d="M8.70001 13.2C9.71771 10.505 11.4441 8.13474 13.6971 6.33944C15.95 4.54414 18.6458 3.3904 21.5 3C21.1096 5.85418 19.9558 8.55002 18.1605 10.8029C16.3652 13.0559 13.995 14.7823 11.3 15.8M11.1 9C13.0431 9.89687 14.6031 11.4568 15.5 13.4M3.5 21V17C3.5 16.2089 3.7346 15.4355 4.17412 14.7777C4.61365 14.1199 5.23836 13.6072 5.96927 13.3045C6.70017 13.0017 7.50444 12.9225 8.28036 13.0769C9.05629 13.2312 9.76902 13.6122 10.3284 14.1716C10.8878 14.731 11.2688 15.4437 11.4231 16.2196C11.5775 16.9956 11.4983 17.7998 11.1955 18.5307C10.8928 19.2616 10.3801 19.8864 9.72228 20.3259C9.06448 20.7654 8.29113 21 7.5 21H3.5Z" stroke="#298DFF" stroke-width="2" stroke-linecap="round" stroke-linejoin="round"/>
</svg>
