<svg width="25" height="24" viewBox="0 0 25 24" fill="none" xmlns="http://www.w3.org/2000/svg">
<path d="M11.914 10L4.53097 17.418C4.33532 17.6123 4.18004 17.8435 4.07408 18.0981C3.96812 18.3527 3.91357 18.6257 3.91357 18.9015C3.91357 19.1773 3.96812 19.4503 4.07408 19.7049C4.18004 19.9595 4.33532 20.1907 4.53097 20.385C4.92634 20.7783 5.46132 20.999 6.01897 20.999C6.57662 20.999 7.1116 20.7783 7.50697 20.385L14.914 13M18.621 15.293L21.207 12.707C21.3944 12.5195 21.4998 12.2652 21.4998 12C21.4998 11.7348 21.3944 11.4805 21.207 11.293L13.621 3.707C13.4334 3.51953 13.1791 3.41422 12.914 3.41422C12.6488 3.41422 12.3945 3.51953 12.207 3.707L9.62097 6.293C9.4335 6.48053 9.32819 6.73484 9.32819 7C9.32819 7.26517 9.4335 7.51947 9.62097 7.707L17.207 15.293C17.3945 15.4805 17.6488 15.5858 17.914 15.5858C18.1791 15.5858 18.4334 15.4805 18.621 15.293Z" stroke="#298DFF" stroke-width="2" stroke-linecap="round" stroke-linejoin="round"/>
</svg>
