<!DOCTYPE svg PUBLIC "-//W3C//DTD SVG 1.1//EN" "http://www.w3.org/Graphics/SVG/1.1/DTD/svg11.dtd">
<!-- Uploaded to: SVG Repo, www.svgrepo.com, Transformed by: SVG Repo Mixer Tools -->
<svg fill="#c8c8c8" width="800px" height="800px" viewBox="0 0 32 32" id="Outlined" xmlns="http://www.w3.org/2000/svg" stroke="#c8c8c8">
<g id="SVGRepo_bgCarrier" stroke-width="0"/>
<g id="SVGRepo_tracerCarrier" stroke-linecap="round" stroke-linejoin="round"/>
<g id="SVGRepo_iconCarrier"> <title/> <g id="Fill"> <path d="M18.12,2.88a3.08,3.08,0,0,0-4.24,0L1.29,15.46l1.42,1.42L5,14.59V27a3,3,0,0,0,3,3H24a3,3,0,0,0,3-3V14.59l2.29,2.29,1.42-1.42ZM14,28V21h4v7Zm11-1a1,1,0,0,1-1,1H20V19H12v9H8a1,1,0,0,1-1-1V12.59l8.29-8.3a1,1,0,0,1,1.42,0L25,12.59Z"/> </g> </g>
</svg>